<?xml version="1.0" encoding="UTF-8" standalone="no"?>
<svg width="100px" height="100px" viewBox="0 0 100 100" version="1.1" xmlns="http://www.w3.org/2000/svg" xmlns:xlink="http://www.w3.org/1999/xlink">
    <!-- Generator: Sketch 3.6.1 (26313) - http://www.bohemiancoding.com/sketch -->
    <title>noun_58058_cc</title>
    <desc>Created with Sketch.</desc>
    <defs></defs>
    <g id="Page-1" stroke="none" stroke-width="1" fill="none" fill-rule="evenodd">
        <g id="noun_58058_cc">
            <g id="Group">
                <path d="M92,0 L8,0 C3.6,0 0,3.6 0,8 L0,75 C0,79.4 3.6,83 8,83 L38.221,83 L32.359,96.236 C31.611,98.307 32.8,100 35,100 L46,100 L54,100 L65,100 C67.2,100 68.391,98.307 67.646,96.236 L61.8,83 L92,83 C96.4,83 100,79.4 100,75 L100,8 C100,3.6 96.4,0 92,0 L92,0 Z M50,80 C48.343,80 47,78.656 47,77 C47,75.344 48.343,74 50,74 C51.656,74 53,75.344 53,77 C53,78.656 51.656,80 50,80 L50,80 Z M96,66 C96,68.2 94.2,70 92,70 L8,70 C5.8,70 4,68.2 4,66 L4,8 C4,5.8 5.8,4 8,4 L92,4 C94.2,4 96,5.8 96,8 L96,66 L96,66 Z" id="Shape" fill="#FFFFFF"></path>
                <rect id="Rectangle-path" fill="#FFFFFF" x="12" y="16" width="76" height="16"></rect>
                <rect id="Rectangle-path" fill="#FFFFFF" x="64" y="37" width="24" height="20"></rect>
                <rect id="Rectangle-path" fill="#F9A528" x="12" y="37" width="44" height="4"></rect>
                <rect id="Rectangle-path" fill="#F9A528" x="12" y="45" width="44" height="4"></rect>
                <rect id="Rectangle-path" fill="#F9A528" x="12" y="53" width="44" height="4"></rect>
            </g>
        </g>
    </g>
</svg>